<mxfile host="65bd71144e">
    <diagram id="tB6FfFDHqaTuA0j6voBJ" name="Login">
        <mxGraphModel grid="1" page="1" gridSize="10" guides="1" tooltips="1" connect="1" arrows="1" fold="1" pageScale="1" pageWidth="850" pageHeight="1100" math="0" shadow="0">
            <root>
                <mxCell id="0"/>
                <mxCell id="1" parent="0"/>
                <mxCell id="2" value="" style="strokeWidth=1;shadow=0;dashed=0;align=center;html=1;shape=mxgraph.mockup.forms.rrect;rSize=0;strokeColor=#999999;fillColor=#ffffff;" vertex="1" parent="1">
                    <mxGeometry x="325" y="180" width="200" height="300" as="geometry"/>
                </mxCell>
                <mxCell id="3" value="Sign In" style="strokeWidth=1;shadow=0;dashed=0;align=center;html=1;shape=mxgraph.mockup.forms.anchor;fontSize=12;fontColor=#666666;align=left;resizeWidth=1;spacingLeft=0;" vertex="1" parent="2">
                    <mxGeometry width="100" height="20" relative="1" as="geometry">
                        <mxPoint x="10" y="10" as="offset"/>
                    </mxGeometry>
                </mxCell>
                <mxCell id="4" value="" style="shape=line;strokeColor=#ddeeff;strokeWidth=2;html=1;resizeWidth=1;" vertex="1" parent="2">
                    <mxGeometry width="180" height="10" relative="1" as="geometry">
                        <mxPoint x="10" y="30" as="offset"/>
                    </mxGeometry>
                </mxCell>
                <mxCell id="5" value="User Name:" style="strokeWidth=1;shadow=0;dashed=0;align=center;html=1;shape=mxgraph.mockup.forms.anchor;fontSize=12;fontColor=#666666;align=left;resizeWidth=1;spacingLeft=0;" vertex="1" parent="2">
                    <mxGeometry width="100" height="20" relative="1" as="geometry">
                        <mxPoint x="10" y="40" as="offset"/>
                    </mxGeometry>
                </mxCell>
                <mxCell id="6" value="" style="strokeWidth=1;shadow=0;dashed=0;align=center;html=1;shape=mxgraph.mockup.forms.rrect;rSize=0;strokeColor=#999999;fontColor=#666666;align=left;spacingLeft=5;resizeWidth=1;" vertex="1" parent="2">
                    <mxGeometry width="170" height="25" relative="1" as="geometry">
                        <mxPoint x="10" y="60" as="offset"/>
                    </mxGeometry>
                </mxCell>
                <mxCell id="9" value="SIGN IN" style="strokeWidth=1;shadow=0;dashed=0;align=center;html=1;shape=mxgraph.mockup.forms.rrect;rSize=5;strokeColor=none;fontColor=#ffffff;fillColor=#66bbff;fontSize=16;fontStyle=1;" vertex="1" parent="2">
                    <mxGeometry y="1" width="80" height="30" relative="1" as="geometry">
                        <mxPoint x="10" y="-200" as="offset"/>
                    </mxGeometry>
                </mxCell>
                <mxCell id="11" value="" style="shape=line;strokeColor=#ddeeff;strokeWidth=2;html=1;resizeWidth=1;" vertex="1" parent="2">
                    <mxGeometry y="1" width="180" height="10" relative="1" as="geometry">
                        <mxPoint x="10" y="-145" as="offset"/>
                    </mxGeometry>
                </mxCell>
                <mxCell id="13" value="SIGN UP" style="strokeWidth=1;shadow=0;dashed=0;align=center;html=1;shape=mxgraph.mockup.forms.rrect;rSize=5;strokeColor=none;fontColor=#ffffff;fillColor=#66bbff;fontSize=16;fontStyle=1;" vertex="1" parent="2">
                    <mxGeometry y="1" width="80" height="30" relative="1" as="geometry">
                        <mxPoint x="105" y="-200" as="offset"/>
                    </mxGeometry>
                </mxCell>
            </root>
        </mxGraphModel>
    </diagram>
    <diagram id="wQwSTN0SP8rA77u6v9ed" name="Main Page">
        <mxGraphModel dx="2068" dy="669" grid="1" gridSize="10" guides="1" tooltips="1" connect="1" arrows="1" fold="1" page="1" pageScale="1" pageWidth="850" pageHeight="1100" math="0" shadow="0">
            <root>
                <mxCell id="0"/>
                <mxCell id="1" parent="0"/>
                <mxCell id="AFIjvNQLvGPmOUvLb4RM-1" value="Home" style="strokeWidth=1;shadow=0;dashed=0;align=center;html=1;shape=mxgraph.mockup.containers.window;align=left;verticalAlign=top;spacingLeft=8;strokeColor2=#008cff;strokeColor3=#c4c4c4;fontColor=#666666;mainText=;fontSize=17;labelBackgroundColor=none;" vertex="1" parent="1">
                    <mxGeometry width="844.48" height="680" as="geometry"/>
                </mxCell>
                <mxCell id="AFIjvNQLvGPmOUvLb4RM-2" value="" style="verticalLabelPosition=bottom;shadow=0;dashed=0;align=center;html=1;verticalAlign=top;strokeWidth=1;shape=mxgraph.mockup.forms.splitter;strokeColor=#999999;direction=north;" vertex="1" parent="1">
                    <mxGeometry x="11" y="49" width="10" height="610" as="geometry"/>
                </mxCell>
                <mxCell id="AFIjvNQLvGPmOUvLb4RM-20" value="New" style="html=1;shadow=0;dashed=0;shape=mxgraph.bootstrap.rrect;rSize=5;fillColor=#0085FC;strokeColor=none;fontSize=14;fontColor=#ffffff;" vertex="1" parent="1">
                    <mxGeometry x="40" y="35" width="70" height="40" as="geometry"/>
                </mxCell>
                <mxCell id="AFIjvNQLvGPmOUvLb4RM-46" value="" style="group" vertex="1" connectable="0" parent="1">
                    <mxGeometry x="554" y="35" width="270" height="40" as="geometry"/>
                </mxCell>
                <mxCell id="AFIjvNQLvGPmOUvLb4RM-24" value="" style="shape=rect;fillColor=#e0e0e0;strokeColor=none;" vertex="1" parent="AFIjvNQLvGPmOUvLb4RM-46">
                    <mxGeometry width="242" height="40" as="geometry"/>
                </mxCell>
                <mxCell id="AFIjvNQLvGPmOUvLb4RM-25" value="" style="html=1;strokeWidth=1;shadow=0;dashed=0;shape=mxgraph.ios7ui.marginRect;rx=3;ry=3;rectMargin=5;strokeColor=none;" vertex="1" parent="AFIjvNQLvGPmOUvLb4RM-24">
                    <mxGeometry width="242" height="40" as="geometry"/>
                </mxCell>
                <mxCell id="AFIjvNQLvGPmOUvLb4RM-40" value="Tag Name" style="dashed=0;html=1;fillColor=#F0F2F5;strokeColor=none;align=center;rounded=1;arcSize=10;fontColor=#3384FF;fontStyle=1;fontSize=11;shadow=0" vertex="1" parent="AFIjvNQLvGPmOUvLb4RM-24">
                    <mxGeometry x="10" y="10" width="60" height="20" as="geometry"/>
                </mxCell>
                <mxCell id="AFIjvNQLvGPmOUvLb4RM-43" value="Tag Name" style="dashed=0;html=1;fillColor=#F0F2F5;strokeColor=none;align=center;rounded=1;arcSize=10;fontColor=#3384FF;fontStyle=1;fontSize=11;shadow=0" vertex="1" parent="AFIjvNQLvGPmOUvLb4RM-24">
                    <mxGeometry x="75" y="10" width="60" height="20" as="geometry"/>
                </mxCell>
                <mxCell id="AFIjvNQLvGPmOUvLb4RM-44" value="Tag." style="dashed=0;html=1;fillColor=#F0F2F5;strokeColor=none;align=center;rounded=1;arcSize=10;fontColor=#3384FF;fontStyle=1;fontSize=11;shadow=0" vertex="1" parent="AFIjvNQLvGPmOUvLb4RM-24">
                    <mxGeometry x="205" y="10" width="25" height="20" as="geometry"/>
                </mxCell>
                <mxCell id="AFIjvNQLvGPmOUvLb4RM-45" value="Tag Name" style="dashed=0;html=1;fillColor=#F0F2F5;strokeColor=none;align=center;rounded=1;arcSize=10;fontColor=#3384FF;fontStyle=1;fontSize=11;shadow=0" vertex="1" parent="AFIjvNQLvGPmOUvLb4RM-24">
                    <mxGeometry x="140" y="10" width="60" height="20" as="geometry"/>
                </mxCell>
                <mxCell id="AFIjvNQLvGPmOUvLb4RM-27" value="" style="html=1;verticalLabelPosition=bottom;align=center;labelBackgroundColor=#ffffff;verticalAlign=top;strokeWidth=2;strokeColor=#0080F0;shadow=0;dashed=0;shape=mxgraph.ios7.icons.looking_glass;" vertex="1" parent="AFIjvNQLvGPmOUvLb4RM-46">
                    <mxGeometry x="250" y="10" width="20" height="20" as="geometry"/>
                </mxCell>
                <mxCell id="AFIjvNQLvGPmOUvLb4RM-71" value="" style="strokeWidth=1;shadow=0;dashed=0;align=center;html=1;shape=mxgraph.mockup.containers.rrect;rSize=0;strokeColor=#666666;fillColor=#FFFFFF;" vertex="1" parent="1">
                    <mxGeometry x="26" y="80" width="814" height="590" as="geometry"/>
                </mxCell>
                <mxCell id="AFIjvNQLvGPmOUvLb4RM-98" value="" style="group" vertex="1" connectable="0" parent="AFIjvNQLvGPmOUvLb4RM-71">
                    <mxGeometry width="814" height="137.66666666666666" as="geometry"/>
                </mxCell>
                <mxCell id="AFIjvNQLvGPmOUvLb4RM-72" value="" style="strokeColor=inherit;fillColor=inherit;gradientColor=inherit;strokeWidth=1;shadow=0;dashed=0;align=center;html=1;shape=mxgraph.mockup.containers.rrect;rSize=0;fontSize=17;fontColor=#666666;fontStyle=1;resizeWidth=1;" vertex="1" parent="AFIjvNQLvGPmOUvLb4RM-98">
                    <mxGeometry width="814" height="140" relative="1" as="geometry">
                        <mxPoint as="offset"/>
                    </mxGeometry>
                </mxCell>
                <mxCell id="AFIjvNQLvGPmOUvLb4RM-86" value="Tag Name" style="dashed=0;html=1;fillColor=#F0F2F5;strokeColor=none;align=center;rounded=1;arcSize=10;fontColor=#3384FF;fontStyle=1;fontSize=11;shadow=0" vertex="1" parent="AFIjvNQLvGPmOUvLb4RM-98">
                    <mxGeometry x="26.592592592592606" y="106.97988505747126" width="180.88888888888889" height="24.79525862068966" as="geometry"/>
                </mxCell>
                <mxCell id="AFIjvNQLvGPmOUvLb4RM-87" value="Tag Name" style="dashed=0;html=1;fillColor=#F0F2F5;strokeColor=none;align=center;rounded=1;arcSize=10;fontColor=#3384FF;fontStyle=1;fontSize=11;shadow=0" vertex="1" parent="AFIjvNQLvGPmOUvLb4RM-98">
                    <mxGeometry x="222.55555555555557" y="106.97988505747126" width="180.88888888888889" height="24.79525862068966" as="geometry"/>
                </mxCell>
                <mxCell id="AFIjvNQLvGPmOUvLb4RM-88" value="Tag Name" style="dashed=0;html=1;fillColor=#F0F2F5;strokeColor=none;align=center;rounded=1;arcSize=10;fontColor=#3384FF;fontStyle=1;fontSize=11;shadow=0" vertex="1" parent="AFIjvNQLvGPmOUvLb4RM-98">
                    <mxGeometry x="418.51851851851853" y="106.97988505747126" width="180.88888888888889" height="24.79525862068966" as="geometry"/>
                </mxCell>
                <mxCell id="AFIjvNQLvGPmOUvLb4RM-91" value="Item 1" style="strokeWidth=1;shadow=0;dashed=0;align=center;html=1;shape=mxgraph.mockup.containers.rrect;rSize=0;fontSize=17;fontColor=#ffffff;fontStyle=1;fillColor=#008cff;strokeColor=#008cff;resizeWidth=1;" vertex="1" parent="AFIjvNQLvGPmOUvLb4RM-98">
                    <mxGeometry x="19.999999999999996" y="9.833333333333332" width="779.9999999999999" height="29.5" as="geometry"/>
                </mxCell>
                <mxCell id="AFIjvNQLvGPmOUvLb4RM-93" value="dsasdjskdladjasdklasdjasjdjdksald;ajdksald;asjdksald;a&lt;br&gt;dsadsdasdasdasdaddasdaassda" style="strokeWidth=1;shadow=0;dashed=0;align=left;html=1;shape=mxgraph.mockup.containers.rrect;rSize=0;fontSize=17;fontColor=#ffffff;fontStyle=1;fillColor=#008cff;strokeColor=#008cff;resizeWidth=1;" vertex="1" parent="AFIjvNQLvGPmOUvLb4RM-98">
                    <mxGeometry x="19.999999999999996" y="47.199999999999996" width="779.9999999999999" height="49.87466666666666" as="geometry"/>
                </mxCell>
                <mxCell id="AFIjvNQLvGPmOUvLb4RM-94" value="Tag Name" style="dashed=0;html=1;fillColor=#F0F2F5;strokeColor=none;align=center;rounded=1;arcSize=10;fontColor=#3384FF;fontStyle=1;fontSize=11;shadow=0" vertex="1" parent="AFIjvNQLvGPmOUvLb4RM-98">
                    <mxGeometry x="609.9585185185184" y="106.97988505747126" width="180.88888888888889" height="24.79525862068966" as="geometry"/>
                </mxCell>
                <mxCell id="AFIjvNQLvGPmOUvLb4RM-96" value="" style="html=1;verticalLabelPosition=bottom;labelBackgroundColor=#ffffff;verticalAlign=top;shadow=0;dashed=0;strokeWidth=2;shape=mxgraph.ios7.misc.expand;fillColor=#c0c0c0;rotation=-180;" vertex="1" parent="AFIjvNQLvGPmOUvLb4RM-98">
                    <mxGeometry x="713.9999999999999" y="63.778999999999996" width="67.99999999999999" height="16.716666666666665" as="geometry"/>
                </mxCell>
                <mxCell id="AFIjvNQLvGPmOUvLb4RM-99" value="" style="group" vertex="1" connectable="0" parent="AFIjvNQLvGPmOUvLb4RM-71">
                    <mxGeometry y="437.5833333333333" width="814" height="137.66666666666666" as="geometry"/>
                </mxCell>
                <mxCell id="AFIjvNQLvGPmOUvLb4RM-100" value="" style="strokeColor=inherit;fillColor=inherit;gradientColor=inherit;strokeWidth=1;shadow=0;dashed=0;align=center;html=1;shape=mxgraph.mockup.containers.rrect;rSize=0;fontSize=17;fontColor=#666666;fontStyle=1;resizeWidth=1;" vertex="1" parent="AFIjvNQLvGPmOUvLb4RM-99">
                    <mxGeometry width="814" height="140" relative="1" as="geometry">
                        <mxPoint as="offset"/>
                    </mxGeometry>
                </mxCell>
                <mxCell id="AFIjvNQLvGPmOUvLb4RM-101" value="Tag Name" style="dashed=0;html=1;fillColor=#F0F2F5;strokeColor=none;align=center;rounded=1;arcSize=10;fontColor=#3384FF;fontStyle=1;fontSize=11;shadow=0" vertex="1" parent="AFIjvNQLvGPmOUvLb4RM-99">
                    <mxGeometry x="26.592592592592606" y="106.97988505747126" width="180.88888888888889" height="24.79525862068966" as="geometry"/>
                </mxCell>
                <mxCell id="AFIjvNQLvGPmOUvLb4RM-102" value="Tag Name" style="dashed=0;html=1;fillColor=#F0F2F5;strokeColor=none;align=center;rounded=1;arcSize=10;fontColor=#3384FF;fontStyle=1;fontSize=11;shadow=0" vertex="1" parent="AFIjvNQLvGPmOUvLb4RM-99">
                    <mxGeometry x="222.55555555555557" y="106.97988505747126" width="180.88888888888889" height="24.79525862068966" as="geometry"/>
                </mxCell>
                <mxCell id="AFIjvNQLvGPmOUvLb4RM-103" value="Tag Name" style="dashed=0;html=1;fillColor=#F0F2F5;strokeColor=none;align=center;rounded=1;arcSize=10;fontColor=#3384FF;fontStyle=1;fontSize=11;shadow=0" vertex="1" parent="AFIjvNQLvGPmOUvLb4RM-99">
                    <mxGeometry x="418.51851851851853" y="106.97988505747126" width="180.88888888888889" height="24.79525862068966" as="geometry"/>
                </mxCell>
                <mxCell id="AFIjvNQLvGPmOUvLb4RM-104" value="Item 1" style="strokeWidth=1;shadow=0;dashed=0;align=center;html=1;shape=mxgraph.mockup.containers.rrect;rSize=0;fontSize=17;fontColor=#ffffff;fontStyle=1;fillColor=#008cff;strokeColor=#008cff;resizeWidth=1;" vertex="1" parent="AFIjvNQLvGPmOUvLb4RM-99">
                    <mxGeometry x="19.999999999999996" y="9.833333333333332" width="779.9999999999999" height="29.5" as="geometry"/>
                </mxCell>
                <mxCell id="AFIjvNQLvGPmOUvLb4RM-105" value="dsasdjskdladjasdklasdjasjdjdksald;ajdksald;asjdksald;a&lt;br&gt;dsadsdasdasdasdaddasdaassda" style="strokeWidth=1;shadow=0;dashed=0;align=left;html=1;shape=mxgraph.mockup.containers.rrect;rSize=0;fontSize=17;fontColor=#ffffff;fontStyle=1;fillColor=#008cff;strokeColor=#008cff;resizeWidth=1;" vertex="1" parent="AFIjvNQLvGPmOUvLb4RM-99">
                    <mxGeometry x="19.999999999999996" y="47.199999999999996" width="779.9999999999999" height="49.87466666666666" as="geometry"/>
                </mxCell>
                <mxCell id="AFIjvNQLvGPmOUvLb4RM-106" value="Tag Name" style="dashed=0;html=1;fillColor=#F0F2F5;strokeColor=none;align=center;rounded=1;arcSize=10;fontColor=#3384FF;fontStyle=1;fontSize=11;shadow=0" vertex="1" parent="AFIjvNQLvGPmOUvLb4RM-99">
                    <mxGeometry x="609.9585185185184" y="106.97988505747126" width="180.88888888888889" height="24.79525862068966" as="geometry"/>
                </mxCell>
                <mxCell id="AFIjvNQLvGPmOUvLb4RM-107" value="" style="html=1;verticalLabelPosition=bottom;labelBackgroundColor=#ffffff;verticalAlign=top;shadow=0;dashed=0;strokeWidth=2;shape=mxgraph.ios7.misc.expand;fillColor=#c0c0c0;rotation=-180;" vertex="1" parent="AFIjvNQLvGPmOUvLb4RM-99">
                    <mxGeometry x="713.9999999999999" y="63.778999999999996" width="67.99999999999999" height="16.716666666666665" as="geometry"/>
                </mxCell>
                <mxCell id="AFIjvNQLvGPmOUvLb4RM-119" value="" style="group" vertex="1" connectable="0" parent="AFIjvNQLvGPmOUvLb4RM-71">
                    <mxGeometry y="157.33333333333331" width="813.9999999999999" height="206.5" as="geometry"/>
                </mxCell>
                <mxCell id="AFIjvNQLvGPmOUvLb4RM-120" value="dsadassdfhdsfhsdjfsdklhfsjakdlfsdhfjksadlfhdsjkflsadhfjsdklfsdhfjksdlfhjdskfhsdjkf&lt;br&gt;fdsjkahfjsdhfjkhsdjfhsadjkflsdhfjksdlfhsdjkflsdhjfsdklfhsdajkflsadfjshdfjkhsjkldfsa&lt;br&gt;fdshjkdshfjkashfjdsalfhsdajfklsahfjsadklfhsadjkflsdjfkslahjdksf&lt;br&gt;&lt;br&gt;dsfhsafhsajhfjkdsahfsajhfjksadhjfhsdajfhjksdhfjash" style="strokeColor=inherit;fillColor=inherit;gradientColor=inherit;strokeWidth=1;shadow=0;dashed=0;align=center;html=1;shape=mxgraph.mockup.containers.rrect;rSize=0;fontSize=17;fontColor=#666666;fontStyle=1;resizeWidth=1;" vertex="1" parent="AFIjvNQLvGPmOUvLb4RM-119">
                    <mxGeometry width="813.9999999999999" height="110" relative="1" as="geometry">
                        <mxPoint y="40" as="offset"/>
                    </mxGeometry>
                </mxCell>
                <mxCell id="AFIjvNQLvGPmOUvLb4RM-121" value="Tag Name" style="dashed=0;html=1;fillColor=#F0F2F5;strokeColor=none;align=center;rounded=1;arcSize=10;fontColor=#3384FF;fontStyle=1;fontSize=11;shadow=0" vertex="1" parent="AFIjvNQLvGPmOUvLb4RM-119">
                    <mxGeometry x="26.592592592592602" y="211.4844827586207" width="180.88888888888886" height="21.695851293103452" as="geometry"/>
                </mxCell>
                <mxCell id="AFIjvNQLvGPmOUvLb4RM-122" value="Tag Name" style="dashed=0;html=1;fillColor=#F0F2F5;strokeColor=none;align=center;rounded=1;arcSize=10;fontColor=#3384FF;fontStyle=1;fontSize=11;shadow=0" vertex="1" parent="AFIjvNQLvGPmOUvLb4RM-119">
                    <mxGeometry x="222.55555555555554" y="211.4844827586207" width="180.88888888888886" height="21.695851293103452" as="geometry"/>
                </mxCell>
                <mxCell id="AFIjvNQLvGPmOUvLb4RM-123" value="Tag Name" style="dashed=0;html=1;fillColor=#F0F2F5;strokeColor=none;align=center;rounded=1;arcSize=10;fontColor=#3384FF;fontStyle=1;fontSize=11;shadow=0" vertex="1" parent="AFIjvNQLvGPmOUvLb4RM-119">
                    <mxGeometry x="418.5185185185185" y="211.4844827586207" width="180.88888888888886" height="21.695851293103452" as="geometry"/>
                </mxCell>
                <mxCell id="AFIjvNQLvGPmOUvLb4RM-124" value="Item 1" style="strokeWidth=1;shadow=0;dashed=0;align=center;html=1;shape=mxgraph.mockup.containers.rrect;rSize=0;fontSize=17;fontColor=#ffffff;fontStyle=1;fillColor=#008cff;strokeColor=#008cff;resizeWidth=1;" vertex="1" parent="AFIjvNQLvGPmOUvLb4RM-119">
                    <mxGeometry x="19.999999999999993" y="8.604166666666666" width="779.9999999999998" height="25.8125" as="geometry"/>
                </mxCell>
                <mxCell id="AFIjvNQLvGPmOUvLb4RM-126" value="Tag Name" style="dashed=0;html=1;fillColor=#F0F2F5;strokeColor=none;align=center;rounded=1;arcSize=10;fontColor=#3384FF;fontStyle=1;fontSize=11;shadow=0" vertex="1" parent="AFIjvNQLvGPmOUvLb4RM-119">
                    <mxGeometry x="609.9585185185183" y="211.4844827586207" width="180.88888888888886" height="21.695851293103452" as="geometry"/>
                </mxCell>
                <mxCell id="AFIjvNQLvGPmOUvLb4RM-127" value="" style="html=1;verticalLabelPosition=bottom;labelBackgroundColor=#ffffff;verticalAlign=top;shadow=0;dashed=0;strokeWidth=2;shape=mxgraph.ios7.misc.expand;fillColor=#c0c0c0;rotation=0;" vertex="1" parent="AFIjvNQLvGPmOUvLb4RM-119">
                    <mxGeometry x="713.9999999999998" y="14.196874999999999" width="67.99999999999997" height="14.627083333333333" as="geometry"/>
                </mxCell>
                <mxCell id="AFIjvNQLvGPmOUvLb4RM-128" value="Tag Name" style="dashed=0;html=1;fillColor=#F0F2F5;strokeColor=none;align=center;rounded=1;arcSize=10;fontColor=#3384FF;fontStyle=1;fontSize=11;shadow=0" vertex="1" parent="AFIjvNQLvGPmOUvLb4RM-71">
                    <mxGeometry x="24.872592592592607" y="401.97005172413793" width="180.88888888888889" height="24.79525862068966" as="geometry"/>
                </mxCell>
                <mxCell id="AFIjvNQLvGPmOUvLb4RM-129" value="Tag Name" style="dashed=0;html=1;fillColor=#F0F2F5;strokeColor=none;align=center;rounded=1;arcSize=10;fontColor=#3384FF;fontStyle=1;fontSize=11;shadow=0" vertex="1" parent="AFIjvNQLvGPmOUvLb4RM-71">
                    <mxGeometry x="220.83555555555557" y="401.97005172413793" width="180.88888888888889" height="24.79525862068966" as="geometry"/>
                </mxCell>
                <mxCell id="AFIjvNQLvGPmOUvLb4RM-130" value="Tag Name" style="dashed=0;html=1;fillColor=#F0F2F5;strokeColor=none;align=center;rounded=1;arcSize=10;fontColor=#3384FF;fontStyle=1;fontSize=11;shadow=0" vertex="1" parent="AFIjvNQLvGPmOUvLb4RM-71">
                    <mxGeometry x="416.7985185185185" y="401.97005172413793" width="180.88888888888889" height="24.79525862068966" as="geometry"/>
                </mxCell>
                <mxCell id="AFIjvNQLvGPmOUvLb4RM-131" value="Tag Name" style="dashed=0;html=1;fillColor=#F0F2F5;strokeColor=none;align=center;rounded=1;arcSize=10;fontColor=#3384FF;fontStyle=1;fontSize=11;shadow=0" vertex="1" parent="AFIjvNQLvGPmOUvLb4RM-71">
                    <mxGeometry x="608.2385185185184" y="401.97005172413793" width="180.88888888888889" height="24.79525862068966" as="geometry"/>
                </mxCell>
                <mxCell id="AFIjvNQLvGPmOUvLb4RM-92" value="&lt;div style=&quot;text-align: left;&quot;&gt;&lt;u style=&quot;font-size: 12px; background-color: initial;&quot;&gt;Created by&lt;/u&gt;&lt;span style=&quot;font-size: 12px; background-color: initial;&quot;&gt;:&lt;/span&gt;&lt;span style=&quot;font-size: 12px; background-color: initial;&quot;&gt; Red Snapper&amp;nbsp; |&amp;nbsp;&amp;nbsp;&lt;/span&gt;&lt;u style=&quot;background-color: initial; font-size: 12px;&quot;&gt;Created&lt;/u&gt;&lt;span style=&quot;background-color: initial; font-size: 12px;&quot;&gt;:&lt;/span&gt;&lt;span style=&quot;background-color: initial; font-size: 12px;&quot;&gt; 23 Mar 23&amp;nbsp; |&amp;nbsp;&amp;nbsp;&lt;/span&gt;&lt;u style=&quot;font-size: 12px; background-color: initial;&quot;&gt;Modified&lt;/u&gt;&lt;span style=&quot;font-size: 12px; background-color: initial;&quot;&gt;: 23 Mar 23&lt;/span&gt;&lt;/div&gt;" style="strokeWidth=1;shadow=0;dashed=0;align=center;html=1;shape=mxgraph.mockup.containers.rrect;rSize=0;fontSize=17;fontColor=#ffffff;fontStyle=1;fillColor=#000000;strokeColor=#008cff;resizeWidth=1;" vertex="1" parent="AFIjvNQLvGPmOUvLb4RM-71">
                    <mxGeometry x="188.99999999999994" y="314.66666666666663" width="419.9999999999999" height="25.8125" as="geometry"/>
                </mxCell>
            </root>
        </mxGraphModel>
    </diagram>
    <diagram id="-xYOqBEcQX127p81uZba" name="Search">
        <mxGraphModel grid="1" page="1" gridSize="10" guides="1" tooltips="1" connect="1" arrows="1" fold="1" pageScale="1" pageWidth="850" pageHeight="1100" math="0" shadow="0">
            <root>
                <mxCell id="0"/>
                <mxCell id="1" parent="0"/>
            </root>
        </mxGraphModel>
    </diagram>
</mxfile>